<?xml version="1.0" standalone="no"?>
<!DOCTYPE svg PUBLIC "-//W3C//DTD SVG 20010904//EN"
 "http://www.w3.org/TR/2001/REC-SVG-20010904/DTD/svg10.dtd">
<svg version="1.0" xmlns="http://www.w3.org/2000/svg"
 width="520.000000pt" height="520.000000pt" viewBox="0 0 520.000000 520.000000"
 preserveAspectRatio="xMidYMid meet">
<metadata>
Created by potrace 1.14, written by Peter Selinger 2001-2017
</metadata>
<g transform="translate(0.000000,520.000000) scale(0.100000,-0.100000)"
fill="#000000" stroke="none">
<path d="M3490 3760 c-26 -26 -41 -64 -84 -211 -50 -171 -48 -152 -49 -374 -2
-181 -4 -203 -22 -235 -52 -89 -194 -93 -250 -6 -17 26 -19 42 -15 189 3 121
-8 138 -51 87 -17 -19 -53 -80 -80 -135 -50 -102 -57 -131 -58 -258 -1 -57 -1
-57 -48 -87 -48 -31 -109 -41 -100 -17 7 20 -12 47 -35 47 -11 0 -35 -16 -54
-37 -18 -20 -46 -44 -61 -55 -31 -20 -58 -24 -48 -7 11 16 -3 56 -21 63 -22 9
-57 -15 -82 -56 -22 -35 -85 -76 -112 -73 -8 1 -22 3 -31 3 -8 1 -23 18 -32
37 -21 44 -57 48 -85 8 -56 -81 -57 -83 -57 -313 0 -201 -2 -219 -23 -272 -80
-197 -282 -328 -507 -329 -71 0 -93 4 -132 24 -84 45 -133 152 -128 282 4 80
11 114 41 199 32 88 51 166 46 188 -5 26 -38 32 -67 11 -48 -35 -142 -257
-170 -405 -19 -100 -12 -248 15 -327 59 -175 184 -279 343 -286 216 -9 413
102 556 313 98 144 168 328 188 492 3 25 7 52 9 60 1 8 3 30 3 48 1 19 6 32
14 32 7 0 74 20 148 45 74 25 168 56 209 69 150 47 229 88 279 145 l24 28 49
-33 c133 -90 301 -39 396 119 35 58 96 219 106 277 3 19 10 60 16 90 6 30 13
132 15 225 3 94 7 227 10 296 3 69 3 134 -1 143 -8 22 -40 20 -64 -4z"/>
<path d="M2214 3452 c-22 -16 -136 -162 -132 -171 6 -18 140 -119 152 -115 13
6 136 161 136 173 0 20 -142 123 -156 113z"/>
<path d="M2314 3169 c-27 -34 -55 -68 -62 -77 -12 -16 -24 -10 -134 71 l-28
21 -29 -35 c-16 -19 -50 -59 -75 -89 l-46 -55 37 -34 c21 -18 58 -47 82 -63
l44 -31 16 21 c47 62 107 131 114 132 4 0 37 -22 73 -50 36 -27 68 -50 72 -50
10 0 152 170 152 182 0 6 -155 118 -162 118 -3 0 -27 -28 -54 -61z"/>
<path d="M3865 2484 c-22 -23 -40 -70 -65 -172 -31 -127 -27 -141 38 -163 67
-23 127 -70 152 -120 33 -64 31 -70 -55 -134 -69 -52 -205 -165 -246 -207 -75
-76 -41 -108 80 -73 146 41 221 75 262 119 82 86 162 298 162 428 0 124 -85
247 -215 312 -60 30 -90 33 -113 10z"/>
<path d="M2631 1964 c-57 -68 -64 -74 -81 -62 -10 7 -44 31 -75 53 l-57 40
-21 -26 c-12 -14 -37 -44 -55 -67 -19 -22 -43 -51 -54 -64 l-19 -23 28 -23
c15 -13 52 -42 80 -64 l53 -40 20 23 c11 13 41 49 66 80 l45 57 72 -54 c40
-30 75 -53 78 -52 10 4 149 172 149 180 0 8 -149 118 -160 118 -4 0 -35 -34
-69 -76z"/>
</g>
</svg>
